<svg width="20" height="20" viewBox="0 0 20 20" fill="none" xmlns="http://www.w3.org/2000/svg">
    <path fill-rule="evenodd" clip-rule="evenodd"
          d="M0.147783 12.2141C-0.0492611 12.2141 0.0492611 12.2141 0 12.2628V12.8467V13.82C0.246305 14.7932 4.48276 17.3723 5.3202 17.7616C5.76355 18.0049 7.04433 18.5401 7.63547 18.7348C9.50739 19.3674 11.5764 19.854 13.5961 20C14.4828 20 14.7291 19.6107 15.2709 19.0268C15.9113 18.2482 16.5025 17.5182 17.0443 16.6423C17.1921 16.3504 17.3892 16.0584 17.5369 15.7178L18.0296 14.7445C18.1281 14.3066 18.3251 13.8686 18.4729 13.382C18.867 11.7275 19.7044 9.44039 17.8325 8.22384C17.734 8.12652 17.6847 8.07786 17.5369 8.0292L17.2414 7.88321L20 0.778589L18.1281 0C16.8966 2.09246 15.6158 4.62287 14.4335 6.76399C14.2365 6.71533 14.0887 6.61801 13.8916 6.56934C10.2463 5.88808 5.86207 14.3066 0.147783 12.2141ZM14.1379 13.0414C14.0887 13.382 13.7931 14.0146 13.6453 14.3066C12.8079 16.0584 11.6256 17.1776 11.4286 17.5182L12.069 17.6642C13.4975 17.8589 13.3005 17.8589 13.7931 17.3236C14.2365 16.7883 14.6798 16.2044 15.0739 15.6204C15.4187 15.0365 15.7635 14.3066 16.0099 13.6253C16.2562 12.944 16.5517 11.9708 16.5517 11.1922L12.1182 9.44039C11.9212 9.58637 11.6256 10.073 11.3793 10.3163L10.9852 10.7056C10.8374 10.8516 10.6897 10.9002 10.5419 11.0949C8.81773 12.5547 6.30542 13.4793 4.03941 14.0146L3.69458 14.1119C3.94089 14.2579 5.41872 15.3285 5.66502 15.3771C5.91133 15.4745 6.25616 15.2798 6.55172 15.1825C7.0936 14.9392 7.58621 14.6959 8.07882 14.4526C8.32512 14.3066 8.57143 14.1606 8.76847 14.0146C8.86699 13.9173 8.96552 13.8686 9.1133 13.82C9.21182 13.674 9.26108 13.6253 9.40887 13.528C9.35961 13.674 9.35961 13.7226 9.26108 13.82C9.16256 14.0146 9.06404 14.1119 8.91626 14.3066C8.52217 14.7445 8.07882 15.0852 7.73399 15.5231L7.58621 15.6691C7.53695 15.6691 7.53695 15.6691 7.53695 15.6691V15.7178L7.0936 16.0584C7.29064 16.2044 7.53695 16.3017 7.73399 16.399C7.9803 16.4964 8.27586 16.545 8.42365 16.6423C8.57143 16.691 8.86699 16.837 8.96552 16.837C9.21182 16.7883 10.4926 15.9611 10.6897 15.8637C12.1182 14.8418 12.8571 14.2579 14.1379 13.0414Z"
          fill="#B3B3B3"/>
</svg>
