<svg width="24" height="19" viewBox="0 0 24 19" fill="none" xmlns="http://www.w3.org/2000/svg">
<path fill-rule="evenodd" clip-rule="evenodd" d="M8.52122 12.0799C8.75793 12.8174 8.99463 13.309 9.70473 13.8006C10.4148 14.5381 11.835 14.7839 12.7818 14.5381C13.0185 14.5381 13.9653 14.0465 14.202 14.7839C14.6754 16.013 12.5451 16.5047 11.835 16.5047C9.94143 16.5047 8.28452 15.5214 7.57442 13.8006C7.33772 13.5548 6.86432 12.5715 6.86432 12.0799C6.15422 12.0799 5.20741 12.3257 4.97071 11.3424C4.97071 10.8508 5.44412 10.605 5.68082 10.1133C5.91752 9.86751 6.15422 9.62169 6.62762 9.13005C7.57442 8.14677 7.81112 8.39259 8.75793 9.37587C8.99463 9.62169 9.23133 9.86751 9.70473 10.3592C9.94143 10.605 10.4148 11.0966 9.94143 11.5883C9.70473 12.0799 9.23133 12.0799 8.52122 12.0799ZM9.23133 7.16349C9.23133 6.1802 11.1249 5.93438 11.835 5.93438C13.2552 5.93438 14.202 6.42602 15.1488 7.16349C15.3855 7.40931 15.3855 7.40931 15.6222 7.65513C16.0956 8.14677 16.8057 9.37587 16.8057 10.1133C17.5158 10.1133 18.4627 9.86751 18.6994 10.8508C18.6994 11.3424 18.226 11.5883 17.9893 12.0799C17.7526 12.3257 17.5159 12.5715 17.0424 13.0632C16.0956 14.0465 15.8589 13.8006 14.9121 12.8174C14.6754 12.5715 13.7286 11.8341 13.7286 11.3424C13.4919 10.8508 13.7286 10.3592 14.4387 10.3592C14.6754 10.3592 15.1488 10.3592 15.3855 10.3592C15.1488 8.88423 13.7286 7.65513 12.3084 7.65513C10.6515 7.65513 11.1249 7.90095 10.4148 7.90095C9.94143 7.90095 9.70473 7.40931 9.70473 7.16349H9.23133ZM0 11.5883C0 13.0632 0 13.5548 0.710102 15.0297C0.946803 15.7672 1.6569 16.5047 2.13031 16.9963C3.31381 18.2254 4.97071 18.9629 6.62762 18.9629H18.226C19.6462 18.9629 21.0664 18.2254 22.2499 17.2421C22.7233 16.7505 23.1967 16.2588 23.4334 15.5214C24.1435 14.0465 24.1435 12.0799 23.6701 10.605C23.1967 9.37587 22.4866 8.63841 21.5398 7.90095C21.3031 7.65513 20.3563 7.16349 19.8829 7.16349C19.8829 5.93438 19.1728 4.21364 18.4627 3.23036C17.7526 2.24708 16.569 1.2638 15.6222 0.772155C15.1488 0.526335 14.9121 0.526335 14.202 0.280514C11.5983 -0.456947 8.75793 0.280514 6.86432 2.24708C6.39092 2.73872 5.91752 3.47618 5.68082 3.96782C5.20741 4.9511 5.20741 4.70528 4.97071 5.44274C4.97071 5.68856 4.97071 5.44274 4.49731 5.68856C3.78721 5.93438 2.84041 6.67185 2.36701 7.16349C1.1835 8.39259 0.473401 10.1133 0.473401 11.8341L0 11.5883Z" fill="#408C52"/>
</svg>
